<?xml version="1.0" encoding="utf-8"?>
<!-- Generator: Adobe Illustrator 14.0.0, SVG Export Plug-In . SVG Version: 6.00 Build 43363)  -->
<!DOCTYPE svg PUBLIC "-//W3C//DTD SVG 1.1//EN" "http://www.w3.org/Graphics/SVG/1.1/DTD/svg11.dtd">
<svg version="1.1" id="Laag_1" xmlns="http://www.w3.org/2000/svg" xmlns:xlink="http://www.w3.org/1999/xlink" x="0px" y="0px"
	 width="436px" height="522.745px" viewBox="0 0 436 522.745" enable-background="new 0 0 436 522.745" xml:space="preserve">
<g>
	<polygon fill-rule="evenodd" clip-rule="evenodd" fill="#FFFFFF" points="-30.455,0 -30.455,539.999 689.545,539.999 689.545,0 
		-30.455,0 	"/>
	<polygon fill-rule="evenodd" clip-rule="evenodd" fill="#FFFFFF" points="261.52,128.265 261.52,157.335 397.584,157.335 
		397.584,128.265 261.52,128.265 	"/>
	<path fill="#C0504D" stroke="#C0504D" stroke-width="0.015" stroke-linejoin="round" stroke-miterlimit="10" d="M260.515,128.265
		c0-0.555,0.45-1.005,1.005-1.005h136.064c0.557,0,1.006,0.45,1.006,1.005v29.07c0,0.555-0.449,1.005-1.006,1.005H261.52
		c-0.555,0-1.005-0.45-1.005-1.005V128.265z M262.51,157.335l-0.99-0.99h136.064l-0.988,0.99v-29.07l0.988,0.99H261.52l0.99-0.99
		V157.335z"/>
	<g>
		<defs>
			<rect id="SVGID_1_" x="-30.335" y="0.12" width="719.999" height="540"/>
		</defs>
		<clipPath id="SVGID_2_">
			<use xlink:href="#SVGID_1_"  overflow="visible"/>
		</clipPath>
		<g clip-path="url(#SVGID_2_)">
			<text transform="matrix(1 0 0 1 268.8315 148.7695)"><tspan x="0" y="0" font-family="'Calibri'" font-size="18">B</tspan><tspan x="9.827" y="0" font-family="'Calibri'" font-size="18">l</tspan><tspan x="13.922" y="0" font-family="'Calibri'" font-size="18">a</tspan><tspan x="22.543" y="0" font-family="'Calibri'" font-size="18">s</tspan><tspan x="29.278" y="0" font-family="'Calibri'" font-size="18">t</tspan><tspan x="35.29" y="0" font-family="'Calibri'" font-size="18"> </tspan><tspan x="39.143" y="0" font-family="'Calibri'" font-size="18">r</tspan><tspan x="45.148" y="0" font-family="'Calibri'" font-size="18">es</tspan><tspan x="61" y="0" font-family="'Calibri'" font-size="18">u</tspan><tspan x="70.368" y="0" font-family="'Calibri'" font-size="18">l</tspan><tspan x="74.461" y="0" font-family="'Calibri'" font-size="18">t</tspan><tspan x="80.473" y="0" font-family="'Calibri'" font-size="18">s</tspan></text>
		</g>
	</g>
	<polygon fill-rule="evenodd" clip-rule="evenodd" fill="#FFFFFF" points="261.52,360.72 261.52,411.614 397.584,411.614 
		397.584,360.72 261.52,360.72 	"/>
	<path fill="#4BACC6" stroke="#4BACC6" stroke-width="0.015" stroke-linejoin="round" stroke-miterlimit="10" d="M260.515,360.72
		c0-0.539,0.45-0.99,1.005-0.99h136.064c0.557,0,1.006,0.451,1.006,0.99v50.895c0,0.555-0.449,1.006-1.006,1.006H261.52
		c-0.555,0-1.005-0.451-1.005-1.006V360.72z M262.51,411.614l-0.99-0.99h136.064l-0.988,0.99V360.72l0.988,1.006H261.52l0.99-1.006
		V411.614z"/>
	<g>
		<defs>
			<rect id="SVGID_3_" x="-30.335" y="0.12" width="719.999" height="540"/>
		</defs>
		<clipPath id="SVGID_4_">
			<use xlink:href="#SVGID_3_"  overflow="visible"/>
		</clipPath>
		<g clip-path="url(#SVGID_4_)">
			<text transform="matrix(1 0 0 1 268.8315 381.2305)"><tspan x="0" y="0" font-family="'Calibri'" font-size="18">l</tspan><tspan x="4.095" y="0" font-family="'Calibri'" font-size="18">o</tspan><tspan x="13.677" y="0" font-family="'Calibri'" font-size="18">c</tspan><tspan x="21.126" y="0" font-family="'Calibri'" font-size="18">a</tspan><tspan x="29.749" y="0" font-family="'Calibri'" font-size="18">l</tspan><tspan x="33.843" y="0" font-family="'Calibri'" font-size="18"> </tspan><tspan x="37.697" y="0" font-family="'Calibri'" font-size="18">C</tspan><tspan x="47.294" y="0" font-family="'Calibri'" font-size="18">I</tspan><tspan x="51.848" y="0" font-family="'Calibri'" font-size="18">T</tspan><tspan x="60.727" y="0" font-family="'Calibri'" font-size="18">E</tspan><tspan x="69.372" y="0" font-family="'Calibri'" font-size="18">S</tspan><tspan x="77.534" y="0" font-family="'Calibri'" font-size="18"> </tspan></text>
		</g>
	</g>
	<g>
		<defs>
			<rect id="SVGID_5_" x="-30.335" y="0.12" width="719.999" height="540"/>
		</defs>
		<clipPath id="SVGID_6_">
			<use xlink:href="#SVGID_5_"  overflow="visible"/>
		</clipPath>
		<g clip-path="url(#SVGID_6_)">
			<text transform="matrix(1 0 0 1 268.8315 402.832)"><tspan x="0" y="0" font-family="'Calibri'" font-size="18">d</tspan><tspan x="9.368" y="0" font-family="'Calibri'" font-size="18">a</tspan><tspan x="17.773" y="0" font-family="'Calibri'" font-size="18">t</tspan><tspan x="23.55" y="0" font-family="'Calibri'" font-size="18">a</tspan><tspan x="32.172" y="0" font-family="'Calibri'" font-size="18">b</tspan><tspan x="41.54" y="0" font-family="'Calibri'" font-size="18">a</tspan><tspan x="50.162" y="0" font-family="'Calibri'" font-size="18">s</tspan><tspan x="57.129" y="0" font-family="'Calibri'" font-size="18">e</tspan></text>
		</g>
	</g>
	<polygon fill-rule="evenodd" clip-rule="evenodd" fill="#FFFFFF" points="261.52,184.965 261.52,257.655 397.584,257.655 
		397.584,184.965 261.52,184.965 	"/>
	<path fill="#4BACC6" stroke="#4BACC6" stroke-width="0.015" stroke-linejoin="round" stroke-miterlimit="10" d="M260.515,184.965
		c0-0.555,0.45-1.005,1.005-1.005h136.064c0.557,0,1.006,0.45,1.006,1.005v72.69c0,0.555-0.449,1.005-1.006,1.005H261.52
		c-0.555,0-1.005-0.45-1.005-1.005V184.965z M262.51,257.655l-0.99-0.99h136.064l-0.988,0.99v-72.69l0.988,0.99H261.52l0.99-0.99
		V257.655z"/>
	<g>
		<defs>
			<rect id="SVGID_7_" x="-30.335" y="0.12" width="719.999" height="540"/>
		</defs>
		<clipPath id="SVGID_8_">
			<use xlink:href="#SVGID_7_"  overflow="visible"/>
		</clipPath>
		<g clip-path="url(#SVGID_8_)">
			<text transform="matrix(1 0 0 1 268.8315 205.4648)"><tspan x="0" y="0" font-family="'Calibri'" font-size="18">B</tspan><tspan x="9.827" y="0" font-family="'Calibri'" font-size="18">l</tspan><tspan x="13.922" y="0" font-family="'Calibri'" font-size="18">a</tspan><tspan x="22.543" y="0" font-family="'Calibri'" font-size="18">c</tspan><tspan x="30.209" y="0" font-family="'Calibri'" font-size="18">k</tspan><tspan x="38.374" y="0" font-family="'Calibri'" font-size="18">li</tspan><tspan x="46.563" y="0" font-family="'Calibri'" font-size="18">s</tspan><tspan x="53.297" y="0" font-family="'Calibri'" font-size="18">t</tspan><tspan x="59.309" y="0" font-family="'Calibri'" font-size="18"> </tspan><tspan x="63.163" y="0" font-family="'Calibri'" font-size="18">o</tspan><tspan x="72.745" y="0" font-family="'Calibri'" font-size="18">f</tspan><tspan x="78.256" y="0" font-family="'Calibri'" font-size="18"> </tspan></text>
		</g>
	</g>
	<g>
		<defs>
			<rect id="SVGID_9_" x="-30.335" y="0.12" width="719.999" height="540"/>
		</defs>
		<clipPath id="SVGID_10_">
			<use xlink:href="#SVGID_9_"  overflow="visible"/>
		</clipPath>
		<g clip-path="url(#SVGID_10_)">
			<text transform="matrix(1 0 0 1 268.8315 227.0664)"><tspan x="0" y="0" font-family="'Calibri'" font-size="18">g</tspan><tspan x="8.167" y="0" font-family="'Calibri'" font-size="18">e</tspan><tspan x="17.051" y="0" font-family="'Calibri'" font-size="18">nb</tspan><tspan x="35.785" y="0" font-family="'Calibri'" font-size="18">a</tspan><tspan x="44.407" y="0" font-family="'Calibri'" font-size="18">n</tspan><tspan x="53.774" y="0" font-family="'Calibri'" font-size="18">k</tspan></text>
		</g>
	</g>
	<g>
		<defs>
			<rect id="SVGID_11_" x="-30.335" y="0.12" width="719.999" height="540"/>
		</defs>
		<clipPath id="SVGID_12_">
			<use xlink:href="#SVGID_11_"  overflow="visible"/>
		</clipPath>
		<g clip-path="url(#SVGID_12_)">
			<text transform="matrix(1 0 0 1 268.8315 248.6602)"><tspan x="0" y="0" font-family="'Calibri'" font-size="18">se</tspan><tspan x="15.852" y="0" font-family="'Calibri'" font-size="18">qu</tspan><tspan x="34.586" y="0" font-family="'Calibri'" font-size="18">e</tspan><tspan x="43.47" y="0" font-family="'Calibri'" font-size="18">n</tspan><tspan x="52.837" y="0" font-family="'Calibri'" font-size="18">c</tspan><tspan x="60.502" y="0" font-family="'Calibri'" font-size="18">e</tspan><tspan x="69.387" y="0" font-family="'Calibri'" font-size="18">s</tspan></text>
		</g>
	</g>
	<polygon fill-rule="evenodd" clip-rule="evenodd" fill="#FFFFFF" points="261.52,281.341 261.52,332.235 397.584,332.235 
		397.584,281.341 261.52,281.341 	"/>
	<path fill="#C0504D" stroke="#C0504D" stroke-width="0.015" stroke-linejoin="round" stroke-miterlimit="10" d="M260.515,281.341
		c0-0.541,0.45-0.99,1.005-0.99h136.064c0.557,0,1.006,0.449,1.006,0.99v50.895c0,0.555-0.449,1.004-1.006,1.004H261.52
		c-0.555,0-1.005-0.449-1.005-1.004V281.341z M262.51,332.235l-0.99-0.99h136.064l-0.988,0.99v-50.895l0.988,1.004H261.52
		l0.99-1.004V332.235z"/>
	<g>
		<defs>
			<rect id="SVGID_13_" x="-30.335" y="0.12" width="719.999" height="540"/>
		</defs>
		<clipPath id="SVGID_14_">
			<use xlink:href="#SVGID_13_"  overflow="visible"/>
		</clipPath>
		<g clip-path="url(#SVGID_14_)">
			<text transform="matrix(1 0 0 1 268.8315 301.8555)"><tspan x="0" y="0" font-family="'Calibri'" font-size="18">F</tspan><tspan x="8.163" y="0" font-family="'Calibri'" font-size="18">il</tspan><tspan x="16.352" y="0" font-family="'Calibri'" font-size="18">t</tspan><tspan x="22.129" y="0" font-family="'Calibri'" font-size="18">e</tspan><tspan x="31.014" y="0" font-family="'Calibri'" font-size="18">r</tspan><tspan x="37.019" y="0" font-family="'Calibri'" font-size="18">e</tspan><tspan x="45.903" y="0" font-family="'Calibri'" font-size="18">d</tspan><tspan x="55.27" y="0" font-family="'Calibri'" font-size="18"> </tspan><tspan x="59.825" y="0" font-family="'Calibri'" font-size="18">se</tspan><tspan x="75.678" y="0" font-family="'Calibri'" font-size="18">t</tspan><tspan x="81.688" y="0" font-family="'Calibri'" font-size="18"> </tspan><tspan x="85.758" y="0" font-family="'Calibri'" font-size="18">o</tspan><tspan x="95.34" y="0" font-family="'Calibri'" font-size="18">f</tspan><tspan x="100.852" y="0" font-family="'Calibri'" font-size="18"> </tspan></text>
		</g>
	</g>
	<g>
		<defs>
			<rect id="SVGID_15_" x="-30.335" y="0.12" width="719.999" height="540"/>
		</defs>
		<clipPath id="SVGID_16_">
			<use xlink:href="#SVGID_15_"  overflow="visible"/>
		</clipPath>
		<g clip-path="url(#SVGID_16_)">
			<text transform="matrix(1 0 0 1 268.8315 323.457)"><tspan x="0" y="0" font-family="'Calibri'" font-size="18">B</tspan><tspan x="9.827" y="0" font-family="'Calibri'" font-size="18">l</tspan><tspan x="13.922" y="0" font-family="'Calibri'" font-size="18">a</tspan><tspan x="22.543" y="0" font-family="'Calibri'" font-size="18">s</tspan><tspan x="29.278" y="0" font-family="'Calibri'" font-size="18">t</tspan><tspan x="35.29" y="0" font-family="'Calibri'" font-size="18"> </tspan><tspan x="39.143" y="0" font-family="'Calibri'" font-size="18">r</tspan><tspan x="45.148" y="0" font-family="'Calibri'" font-size="18">es</tspan><tspan x="61" y="0" font-family="'Calibri'" font-size="18">u</tspan><tspan x="70.368" y="0" font-family="'Calibri'" font-size="18">l</tspan><tspan x="74.461" y="0" font-family="'Calibri'" font-size="18">t</tspan><tspan x="80.473" y="0" font-family="'Calibri'" font-size="18">s</tspan></text>
		</g>
	</g>
	<polygon fill-rule="evenodd" clip-rule="evenodd" fill="#FFFFFF" points="238.84,14.865 238.84,43.935 420.266,43.935 
		420.266,14.865 238.84,14.865 	"/>
	<path fill="#C0504D" stroke="#C0504D" stroke-width="0.015" stroke-linejoin="round" stroke-miterlimit="10" d="M237.835,14.865
		c0-0.555,0.45-1.005,1.005-1.005h181.426c0.555,0,1.004,0.45,1.004,1.005v29.07c0,0.555-0.449,1.005-1.004,1.005H238.84
		c-0.555,0-1.005-0.45-1.005-1.005V14.865z M239.83,43.935l-0.99-0.99h181.426l-0.99,0.99v-29.07l0.99,0.99H238.84l0.99-0.99V43.935
		z"/>
	<g>
		<defs>
			<rect id="SVGID_17_" x="-30.335" y="0.12" width="719.999" height="540"/>
		</defs>
		<clipPath id="SVGID_18_">
			<use xlink:href="#SVGID_17_"  overflow="visible"/>
		</clipPath>
		<g clip-path="url(#SVGID_18_)">
			<text transform="matrix(1 0 0 1 246.1519 35.3711)"><tspan x="0" y="0" font-family="'Calibri'" font-size="18">(</tspan><tspan x="5.512" y="0" font-family="'Calibri'" font-size="18">N</tspan><tspan x="17.041" y="0" font-family="'Calibri'" font-size="18">e</tspan><tspan x="25.691" y="0" font-family="'Calibri'" font-size="18">x</tspan><tspan x="33.379" y="0" font-family="'Calibri'" font-size="18">t</tspan></text>
		</g>
	</g>
	<g>
		<defs>
			<rect id="SVGID_19_" x="-30.335" y="0.12" width="719.999" height="540"/>
		</defs>
		<clipPath id="SVGID_20_">
			<use xlink:href="#SVGID_19_"  overflow="visible"/>
		</clipPath>
		<g clip-path="url(#SVGID_20_)">
			<text transform="matrix(1 0 0 1 285.5117 35.3711)" font-family="'Calibri'" font-size="18">-</text>
		</g>
	</g>
	<g>
		<defs>
			<rect id="SVGID_21_" x="-30.335" y="0.12" width="719.999" height="540"/>
		</defs>
		<clipPath id="SVGID_22_">
			<use xlink:href="#SVGID_21_"  overflow="visible"/>
		</clipPath>
		<g clip-path="url(#SVGID_22_)">
			<text transform="matrix(1 0 0 1 291.0352 35.3711)"><tspan x="0" y="0" font-family="'Calibri'" font-size="18">g</tspan><tspan x="8.166" y="0" font-family="'Calibri'" font-size="18">e</tspan><tspan x="17.051" y="0" font-family="'Calibri'" font-size="18">n</tspan><tspan x="26.418" y="0" font-family="'Calibri'" font-size="18">)</tspan><tspan x="31.93" y="0" font-family="'Calibri'" font-size="18"> </tspan><tspan x="36.484" y="0" font-family="'Calibri'" font-size="18">S</tspan><tspan x="44.646" y="0" font-family="'Calibri'" font-size="18">e</tspan><tspan x="53.531" y="0" font-family="'Calibri'" font-size="18">qu</tspan><tspan x="72.266" y="0" font-family="'Calibri'" font-size="18">e</tspan><tspan x="81.148" y="0" font-family="'Calibri'" font-size="18">n</tspan><tspan x="90.516" y="0" font-family="'Calibri'" font-size="18">c</tspan><tspan x="98.182" y="0" font-family="'Calibri'" font-size="18">e</tspan><tspan x="107.066" y="0" font-family="'Calibri'" font-size="18">s</tspan></text>
		</g>
	</g>
	<polygon fill-rule="evenodd" clip-rule="evenodd" fill="#FFFFFF" points="12.04,270 12.04,299.085 148.12,299.085 148.12,270 
		12.04,270 	"/>
	<path fill="#9BBB59" stroke="#9BBB59" stroke-width="0.015" stroke-linejoin="round" stroke-miterlimit="10" d="M11.035,270
		c0-0.54,0.45-0.99,1.005-0.99h136.08c0.54,0,0.99,0.45,0.99,0.99v29.085c0,0.555-0.45,1.006-0.99,1.006H12.04
		c-0.555,0-1.005-0.451-1.005-1.006V270z M13.03,299.085l-0.99-0.99h136.08l-1.005,0.99V270l1.005,1.005H12.04L13.03,270V299.085z"
		/>
	<g>
		<defs>
			<rect id="SVGID_23_" x="-30.335" y="0.12" width="719.999" height="540"/>
		</defs>
		<clipPath id="SVGID_24_">
			<use xlink:href="#SVGID_23_"  overflow="visible"/>
		</clipPath>
		<g clip-path="url(#SVGID_24_)">
			<text transform="matrix(1 0 0 1 19.355 290.5195)"><tspan x="0" y="0" font-family="'Calibri'" font-size="18">O</tspan><tspan x="11.99" y="0" font-family="'Calibri'" font-size="18">n</tspan><tspan x="21.357" y="0" font-family="'Calibri'" font-size="18">li</tspan><tspan x="29.547" y="0" font-family="'Calibri'" font-size="18">n</tspan><tspan x="38.914" y="0" font-family="'Calibri'" font-size="18">e</tspan><tspan x="47.798" y="0" font-family="'Calibri'" font-size="18"> </tspan><tspan x="52.101" y="0" font-family="'Calibri'" font-size="18">C</tspan><tspan x="61.699" y="0" font-family="'Calibri'" font-size="18">I</tspan><tspan x="66.252" y="0" font-family="'Calibri'" font-size="18">T</tspan><tspan x="75.131" y="0" font-family="'Calibri'" font-size="18">E</tspan><tspan x="83.776" y="0" font-family="'Calibri'" font-size="18">S</tspan><tspan x="91.939" y="0" font-family="'Calibri'" font-size="18"> </tspan><tspan x="95.792" y="0" font-family="'Calibri'" font-size="18">li</tspan><tspan x="103.982" y="0" font-family="'Calibri'" font-size="18">s</tspan><tspan x="110.716" y="0" font-family="'Calibri'" font-size="18">t</tspan></text>
		</g>
	</g>
	<polygon fill-rule="evenodd" clip-rule="evenodd" fill="#FFFFFF" points="12.04,321.03 12.04,393.735 148.12,393.735 
		148.12,321.03 12.04,321.03 	"/>
	<path fill="#9BBB59" stroke="#9BBB59" stroke-width="0.015" stroke-linejoin="round" stroke-miterlimit="10" d="M11.035,321.03
		c0-0.541,0.45-0.99,1.005-0.99h136.08c0.54,0,0.99,0.449,0.99,0.99v72.705c0,0.555-0.45,1.004-0.99,1.004H12.04
		c-0.555,0-1.005-0.449-1.005-1.004V321.03z M13.03,393.735l-0.99-0.99h136.08l-1.005,0.99V321.03l1.005,1.004H12.04l0.99-1.004
		V393.735z"/>
	<g>
		<defs>
			<rect id="SVGID_25_" x="-30.335" y="0.12" width="719.999" height="540"/>
		</defs>
		<clipPath id="SVGID_26_">
			<use xlink:href="#SVGID_25_"  overflow="visible"/>
		</clipPath>
		<g clip-path="url(#SVGID_26_)">
			<text transform="matrix(1 0 0 1 19.355 341.543)"><tspan x="0" y="0" font-family="'Calibri'" font-size="18">T</tspan><tspan x="8.879" y="0" font-family="'Calibri'" font-size="18">N</tspan><tspan x="20.409" y="0" font-family="'Calibri'" font-size="18">R</tspan><tspan x="30.02" y="0" font-family="'Calibri'" font-size="18">S</tspan><tspan x="38.183" y="0" font-family="'Calibri'" font-size="18"> </tspan><tspan x="42.036" y="0" font-family="'Calibri'" font-size="18">f</tspan><tspan x="47.079" y="0" font-family="'Calibri'" font-size="18">o</tspan><tspan x="56.661" y="0" font-family="'Calibri'" font-size="18">r</tspan><tspan x="62.918" y="0" font-family="'Calibri'" font-size="18"> </tspan></text>
		</g>
	</g>
	<g>
		<defs>
			<rect id="SVGID_27_" x="-30.335" y="0.12" width="719.999" height="540"/>
		</defs>
		<clipPath id="SVGID_28_">
			<use xlink:href="#SVGID_27_"  overflow="visible"/>
		</clipPath>
		<g clip-path="url(#SVGID_28_)">
			<text transform="matrix(1 0 0 1 19.355 363.1445)"><tspan x="0" y="0" font-family="'Calibri'" font-size="18">s</tspan><tspan x="6.734" y="0" font-family="'Calibri'" font-size="18">y</tspan><tspan x="14.881" y="0" font-family="'Calibri'" font-size="18">n</tspan><tspan x="24.249" y="0" font-family="'Calibri'" font-size="18">o</tspan><tspan x="33.831" y="0" font-family="'Calibri'" font-size="18">n</tspan><tspan x="42.964" y="0" font-family="'Calibri'" font-size="18">y</tspan><tspan x="51.111" y="0" font-family="'Calibri'" font-size="18">m</tspan><tspan x="65.508" y="0" font-family="'Calibri'" font-size="18">s</tspan><tspan x="72.476" y="0" font-family="'Calibri'" font-size="18"> </tspan><tspan x="76.33" y="0" font-family="'Calibri'" font-size="18">a</tspan><tspan x="84.952" y="0" font-family="'Calibri'" font-size="18">nd</tspan><tspan x="103.686" y="0" font-family="'Calibri'" font-size="18"> </tspan></text>
		</g>
	</g>
	<g>
		<defs>
			<rect id="SVGID_29_" x="-30.335" y="0.12" width="719.999" height="540"/>
		</defs>
		<clipPath id="SVGID_30_">
			<use xlink:href="#SVGID_29_"  overflow="visible"/>
		</clipPath>
		<g clip-path="url(#SVGID_30_)">
			<text transform="matrix(1 0 0 1 19.355 384.7461)"><tspan x="0" y="0" font-family="'Calibri'" font-size="18">t</tspan><tspan x="5.777" y="0" font-family="'Calibri'" font-size="18">a</tspan><tspan x="14.184" y="0" font-family="'Calibri'" font-size="18">x</tspan><tspan x="21.385" y="0" font-family="'Calibri'" font-size="18">o</tspan><tspan x="30.967" y="0" font-family="'Calibri'" font-size="18">n</tspan></text>
		</g>
	</g>
	<g>
		<defs>
			<rect id="SVGID_31_" x="-30.335" y="0.12" width="719.999" height="540"/>
		</defs>
		<clipPath id="SVGID_32_">
			<use xlink:href="#SVGID_31_"  overflow="visible"/>
		</clipPath>
		<g clip-path="url(#SVGID_32_)">
			<text transform="matrix(1 0 0 1 63.7534 384.7461)"><tspan x="0" y="0" font-family="'Calibri'" font-size="18">i</tspan><tspan x="4.095" y="0" font-family="'Calibri'" font-size="18">d</tspan><tspan x="13.462" y="0" font-family="'Calibri'" font-size="18">e</tspan><tspan x="22.346" y="0" font-family="'Calibri'" font-size="18">n</tspan><tspan x="31.479" y="0" font-family="'Calibri'" font-size="18">tif</tspan><tspan x="41.489" y="0" font-family="'Calibri'" font-size="18">i</tspan><tspan x="51.035" y="0" font-family="'Calibri'" font-size="18">e</tspan><tspan x="59.918" y="0" font-family="'Calibri'" font-size="18">r</tspan><tspan x="65.924" y="0" font-family="'Calibri'" font-size="18">s</tspan></text>
		</g>
	</g>
	<polygon fill-rule="evenodd" clip-rule="evenodd" fill="#FFFFFF" points="12.055,417.419 12.055,511.95 148.135,511.95 
		148.135,417.419 12.055,417.419 	"/>
	<path fill="#9BBB59" stroke="#9BBB59" stroke-width="0.03" stroke-linejoin="round" stroke-miterlimit="10" d="M11.035,417.419
		c0-0.539,0.45-0.988,1.02-0.988h136.08c0.54,0,0.99,0.449,0.99,0.988v94.531c0,0.539-0.45,0.99-0.99,0.99H12.055
		c-0.57,0-1.02-0.451-1.02-0.99V417.419z M13.045,511.95l-0.99-0.99h136.08l-1.02,0.99v-94.531l1.02,1.021H12.055l0.99-1.021V511.95
		z"/>
	<g>
		<defs>
			<rect id="SVGID_33_" x="-30.335" y="0.12" width="719.999" height="540"/>
		</defs>
		<clipPath id="SVGID_34_">
			<use xlink:href="#SVGID_33_"  overflow="visible"/>
		</clipPath>
		<g clip-path="url(#SVGID_34_)">
			<text transform="matrix(1 0 0 1 19.355 437.9258)"><tspan x="0" y="0" font-family="'Calibri'" font-size="18">N</tspan><tspan x="11.529" y="0" font-family="'Calibri'" font-size="18">C</tspan><tspan x="21.127" y="0" font-family="'Calibri'" font-size="18">B</tspan><tspan x="30.954" y="0" font-family="'Calibri'" font-size="18">I</tspan><tspan x="35.507" y="0" font-family="'Calibri'" font-size="18"> </tspan><tspan x="39.36" y="0" font-family="'Calibri'" font-size="18">t</tspan><tspan x="45.138" y="0" font-family="'Calibri'" font-size="18">a</tspan><tspan x="53.543" y="0" font-family="'Calibri'" font-size="18">x</tspan><tspan x="60.746" y="0" font-family="'Calibri'" font-size="18">o</tspan><tspan x="70.328" y="0" font-family="'Calibri'" font-size="18">n</tspan><tspan x="79.695" y="0" font-family="'Calibri'" font-size="18">o</tspan><tspan x="89.277" y="0" font-family="'Calibri'" font-size="18">m</tspan><tspan x="103.44" y="0" font-family="'Calibri'" font-size="18">y </tspan></text>
		</g>
	</g>
	<g>
		<defs>
			<rect id="SVGID_35_" x="-30.335" y="0.12" width="719.999" height="540"/>
		</defs>
		<clipPath id="SVGID_36_">
			<use xlink:href="#SVGID_35_"  overflow="visible"/>
		</clipPath>
		<g clip-path="url(#SVGID_36_)">
			<text transform="matrix(1 0 0 1 19.355 459.5273)"><tspan x="0" y="0" font-family="'Calibri'" font-size="18">d</tspan><tspan x="9.367" y="0" font-family="'Calibri'" font-size="18">a</tspan><tspan x="17.773" y="0" font-family="'Calibri'" font-size="18">t</tspan><tspan x="23.55" y="0" font-family="'Calibri'" font-size="18">a</tspan><tspan x="32.172" y="0" font-family="'Calibri'" font-size="18">b</tspan><tspan x="41.54" y="0" font-family="'Calibri'" font-size="18">a</tspan><tspan x="50.162" y="0" font-family="'Calibri'" font-size="18">se</tspan><tspan x="66.014" y="0" font-family="'Calibri'" font-size="18"> </tspan><tspan x="70.317" y="0" font-family="'Calibri'" font-size="18">f</tspan><tspan x="75.36" y="0" font-family="'Calibri'" font-size="18">o</tspan><tspan x="84.942" y="0" font-family="'Calibri'" font-size="18">r</tspan><tspan x="91.2" y="0" font-family="'Calibri'" font-size="18"> </tspan></text>
		</g>
	</g>
	<g>
		<defs>
			<rect id="SVGID_37_" x="-30.335" y="0.12" width="719.999" height="540"/>
		</defs>
		<clipPath id="SVGID_38_">
			<use xlink:href="#SVGID_37_"  overflow="visible"/>
		</clipPath>
		<g clip-path="url(#SVGID_38_)">
			<text transform="matrix(1 0 0 1 19.355 481.1289)"><tspan x="0" y="0" font-family="'Calibri'" font-size="18">a</tspan><tspan x="8.622" y="0" font-family="'Calibri'" font-size="18">dd</tspan><tspan x="27.356" y="0" font-family="'Calibri'" font-size="18">i</tspan><tspan x="31.451" y="0" font-family="'Calibri'" font-size="18">ti</tspan><tspan x="41.461" y="0" font-family="'Calibri'" font-size="18">o</tspan><tspan x="51.043" y="0" font-family="'Calibri'" font-size="18">n</tspan><tspan x="60.411" y="0" font-family="'Calibri'" font-size="18">a</tspan><tspan x="69.033" y="0" font-family="'Calibri'" font-size="18">l</tspan><tspan x="73.127" y="0" font-family="'Calibri'" font-size="18"> </tspan></text>
		</g>
	</g>
	<g>
		<defs>
			<rect id="SVGID_39_" x="-30.335" y="0.12" width="719.999" height="540"/>
		</defs>
		<clipPath id="SVGID_40_">
			<use xlink:href="#SVGID_39_"  overflow="visible"/>
		</clipPath>
		<g clip-path="url(#SVGID_40_)">
			<text transform="matrix(1 0 0 1 96.8706 481.1289)"><tspan x="0" y="0" font-family="'Calibri'" font-size="18">t</tspan><tspan x="5.777" y="0" font-family="'Calibri'" font-size="18">a</tspan><tspan x="14.184" y="0" font-family="'Calibri'" font-size="18">x</tspan><tspan x="21.385" y="0" font-family="'Calibri'" font-size="18">o</tspan><tspan x="30.967" y="0" font-family="'Calibri'" font-size="18">n</tspan></text>
		</g>
	</g>
	<g>
		<defs>
			<rect id="SVGID_41_" x="-30.335" y="0.12" width="719.999" height="540"/>
		</defs>
		<clipPath id="SVGID_42_">
			<use xlink:href="#SVGID_41_"  overflow="visible"/>
		</clipPath>
		<g clip-path="url(#SVGID_42_)">
			<text transform="matrix(1 0 0 1 19.355 502.731)"><tspan x="0" y="0" font-family="'Calibri'" font-size="18">i</tspan><tspan x="4.095" y="0" font-family="'Calibri'" font-size="18">d</tspan><tspan x="13.462" y="0" font-family="'Calibri'" font-size="18">e</tspan><tspan x="22.346" y="0" font-family="'Calibri'" font-size="18">n</tspan><tspan x="31.479" y="0" font-family="'Calibri'" font-size="18">tif</tspan><tspan x="41.489" y="0" font-family="'Calibri'" font-size="18">i</tspan><tspan x="51.035" y="0" font-family="'Calibri'" font-size="18">e</tspan><tspan x="59.918" y="0" font-family="'Calibri'" font-size="18">r</tspan><tspan x="65.924" y="0" font-family="'Calibri'" font-size="18">s</tspan></text>
		</g>
	</g>
	<path fill="#4A7EBB" stroke="#4A7EBB" stroke-width="0.015" stroke-linejoin="round" stroke-miterlimit="10" d="M148.45,284.175
		L261.115,385.14l-0.675,0.75L147.775,284.925L148.45,284.175z M259.12,378.749l2.4,7.426l-7.65-1.574
		c-0.27-0.061-0.45-0.316-0.39-0.586s0.315-0.449,0.585-0.391l6.81,1.396l-0.57,0.645l-2.145-6.615
		c-0.075-0.256,0.06-0.539,0.33-0.631C258.745,378.345,259.03,378.479,259.12,378.749L259.12,378.749z"/>
	<path fill="#4A7EBB" stroke="#4A7EBB" stroke-width="0.015" stroke-linejoin="round" stroke-miterlimit="10" d="M148.24,356.909
		l112.44,28.531l-0.255,0.975l-112.44-28.545L148.24,356.909z M255.955,380.7l5.565,5.475l-7.5,2.145
		c-0.27,0.076-0.555-0.074-0.63-0.344c-0.075-0.256,0.09-0.541,0.345-0.615l6.675-1.906l-0.21,0.826l-4.95-4.861
		c-0.195-0.193-0.195-0.51-0.015-0.703C255.43,380.505,255.745,380.505,255.955,380.7L255.955,380.7z"/>
	<path fill="#4A7EBB" stroke="#4A7EBB" stroke-width="0.015" stroke-linejoin="round" stroke-miterlimit="10" d="M147.835,464.265
		l112.575-77.939l0.57,0.824l-112.575,77.941L147.835,464.265z M253.735,386.774l7.785-0.6l-3.315,7.064
		c-0.105,0.256-0.405,0.361-0.66,0.24c-0.255-0.119-0.36-0.42-0.24-0.66l2.94-6.299l0.495,0.719l-6.93,0.525
		c-0.27,0.029-0.51-0.18-0.54-0.449C253.255,387.03,253.465,386.79,253.735,386.774L253.735,386.774z"/>
	<polygon fill-rule="evenodd" clip-rule="evenodd" fill="#FFFFFF" points="238.84,71.565 238.84,100.635 420.266,100.635 
		420.266,71.565 238.84,71.565 	"/>
	<path fill="#9BBB59" stroke="#9BBB59" stroke-width="0.015" stroke-linejoin="round" stroke-miterlimit="10" d="M237.835,71.565
		c0-0.555,0.45-1.005,1.005-1.005h181.426c0.555,0,1.004,0.45,1.004,1.005v29.07c0,0.555-0.449,1.005-1.004,1.005H238.84
		c-0.555,0-1.005-0.45-1.005-1.005V71.565z M239.83,100.635l-0.99-0.99h181.426l-0.99,0.99v-29.07l0.99,0.99H238.84l0.99-0.99
		V100.635z"/>
	<g>
		<defs>
			<rect id="SVGID_43_" x="-30.335" y="0.12" width="719.999" height="540"/>
		</defs>
		<clipPath id="SVGID_44_">
			<use xlink:href="#SVGID_43_"  overflow="visible"/>
		</clipPath>
		<g clip-path="url(#SVGID_44_)">
			<text transform="matrix(1 0 0 1 246.1519 92.0664)"><tspan x="0" y="0" font-family="'Calibri'" font-size="18">N</tspan><tspan x="11.529" y="0" font-family="'Calibri'" font-size="18">C</tspan><tspan x="21.127" y="0" font-family="'Calibri'" font-size="18">B</tspan><tspan x="30.954" y="0" font-family="'Calibri'" font-size="18">I</tspan><tspan x="35.506" y="0" font-family="'Calibri'" font-size="18"> </tspan><tspan x="39.36" y="0" font-family="'Calibri'" font-size="18">nu</tspan><tspan x="58.094" y="0" font-family="'Calibri'" font-size="18">c</tspan><tspan x="65.76" y="0" font-family="'Calibri'" font-size="18">l</tspan><tspan x="69.854" y="0" font-family="'Calibri'" font-size="18">e</tspan><tspan x="78.739" y="0" font-family="'Calibri'" font-size="18">o</tspan><tspan x="88.321" y="0" font-family="'Calibri'" font-size="18">ti</tspan><tspan x="98.331" y="0" font-family="'Calibri'" font-size="18">d</tspan><tspan x="107.698" y="0" font-family="'Calibri'" font-size="18">e</tspan><tspan x="116.583" y="0" font-family="'Calibri'" font-size="18"> </tspan><tspan x="121.372" y="0" font-family="'Calibri'" font-size="18">B</tspan><tspan x="131.198" y="0" font-family="'Calibri'" font-size="18">l</tspan><tspan x="135.293" y="0" font-family="'Calibri'" font-size="18">a</tspan><tspan x="143.915" y="0" font-family="'Calibri'" font-size="18">s</tspan><tspan x="150.649" y="0" font-family="'Calibri'" font-size="18">t</tspan></text>
		</g>
	</g>
	<path fill="#4A7EBB" stroke="#4A7EBB" stroke-width="0.015" stroke-linejoin="round" stroke-miterlimit="10" d="M330.055,43.935
		v26.64h-1.005v-26.64H330.055z M333.49,64.815l-3.945,6.75l-3.93-6.75c-0.135-0.225-0.061-0.54,0.18-0.675
		c0.24-0.135,0.555-0.06,0.689,0.18l3.496,6h-0.855l3.494-6c0.137-0.24,0.451-0.315,0.691-0.18
		C333.535,64.275,333.625,64.59,333.49,64.815L333.49,64.815z"/>
	<path fill="#4A7EBB" stroke="#4A7EBB" stroke-width="0.015" stroke-linejoin="round" stroke-miterlimit="10" d="M330.055,100.635
		v26.64h-1.005v-26.64H330.055z M333.49,121.515l-3.945,6.75l-3.93-6.75c-0.135-0.24-0.061-0.54,0.18-0.675
		c0.24-0.135,0.555-0.06,0.689,0.18l3.496,6h-0.855l3.494-6c0.137-0.24,0.451-0.315,0.691-0.18
		C333.535,120.975,333.625,121.275,333.49,121.515L333.49,121.515z"/>
	<path fill="#4A7EBB" stroke="#4A7EBB" stroke-width="0.015" stroke-linejoin="round" stroke-miterlimit="10" d="M330.055,157.335
		v26.64h-1.005v-26.64H330.055z M333.49,178.215l-3.945,6.75l-3.93-6.75c-0.135-0.24-0.061-0.54,0.18-0.675
		c0.24-0.15,0.555-0.06,0.689,0.18l3.496,6h-0.855l3.494-6c0.137-0.24,0.451-0.33,0.691-0.18
		C333.535,177.675,333.625,177.975,333.49,178.215L333.49,178.215z"/>
	<path fill="#4A7EBB" stroke="#4A7EBB" stroke-width="0.015" stroke-linejoin="round" stroke-miterlimit="10" d="M330.055,257.655
		v22.696h-1.005v-22.696H330.055z M333.49,274.604l-3.945,6.75l-3.93-6.75c-0.135-0.24-0.061-0.539,0.18-0.674
		c0.24-0.15,0.555-0.061,0.689,0.18l3.496,6h-0.855l3.494-6c0.137-0.24,0.451-0.33,0.691-0.18
		C333.535,274.065,333.625,274.364,333.49,274.604L333.49,274.604z"/>
	<polygon fill-rule="evenodd" clip-rule="evenodd" fill="#FFFFFF" points="261.535,434.431 261.535,507.149 397.584,507.149 
		397.584,434.431 261.535,434.431 	"/>
	<path fill="#C0504D" stroke="#C0504D" stroke-width="0.03" stroke-linejoin="round" stroke-miterlimit="10" d="M260.515,434.431
		c0-0.541,0.45-0.99,0.99-0.99h136.079c0.57,0,1.021,0.449,1.021,0.99v72.718c0,0.541-0.451,0.99-1.021,0.99H261.505
		c-0.54,0-0.99-0.449-0.99-0.99V434.431z M262.525,507.149l-1.02-1.02h136.079l-0.988,1.02v-72.718l0.988,1.02H261.505l1.02-1.02
		V507.149z"/>
	<g>
		<defs>
			<rect id="SVGID_45_" x="-30.335" y="0.12" width="719.999" height="540"/>
		</defs>
		<clipPath id="SVGID_46_">
			<use xlink:href="#SVGID_45_"  overflow="visible"/>
		</clipPath>
		<g clip-path="url(#SVGID_46_)">
			<text transform="matrix(1 0 0 1 268.8315 454.9414)"><tspan x="0" y="0" font-family="'Calibri'" font-size="18">B</tspan><tspan x="9.827" y="0" font-family="'Calibri'" font-size="18">l</tspan><tspan x="13.922" y="0" font-family="'Calibri'" font-size="18">a</tspan><tspan x="22.543" y="0" font-family="'Calibri'" font-size="18">s</tspan><tspan x="29.278" y="0" font-family="'Calibri'" font-size="18">t</tspan><tspan x="35.29" y="0" font-family="'Calibri'" font-size="18"> </tspan><tspan x="39.143" y="0" font-family="'Calibri'" font-size="18">r</tspan><tspan x="45.148" y="0" font-family="'Calibri'" font-size="18">es</tspan><tspan x="61" y="0" font-family="'Calibri'" font-size="18">u</tspan><tspan x="70.368" y="0" font-family="'Calibri'" font-size="18">l</tspan><tspan x="74.461" y="0" font-family="'Calibri'" font-size="18">t</tspan><tspan x="80.473" y="0" font-family="'Calibri'" font-size="18">s</tspan><tspan x="87.442" y="0" font-family="'Calibri'" font-size="18"> </tspan></text>
		</g>
	</g>
	<g>
		<defs>
			<rect id="SVGID_47_" x="-30.335" y="0.12" width="719.999" height="540"/>
		</defs>
		<clipPath id="SVGID_48_">
			<use xlink:href="#SVGID_47_"  overflow="visible"/>
		</clipPath>
		<g clip-path="url(#SVGID_48_)">
			<text transform="matrix(1 0 0 1 268.8315 476.543)"><tspan x="0" y="0" font-family="'Calibri'" font-size="18">w</tspan><tspan x="12.958" y="0" font-family="'Calibri'" font-size="18">i</tspan><tspan x="17.052" y="0" font-family="'Calibri'" font-size="18">t</tspan><tspan x="23.063" y="0" font-family="'Calibri'" font-size="18">h</tspan><tspan x="32.43" y="0" font-family="'Calibri'" font-size="18"> C</tspan><tspan x="46.097" y="0" font-family="'Calibri'" font-size="18">I</tspan><tspan x="50.651" y="0" font-family="'Calibri'" font-size="18">T</tspan><tspan x="59.53" y="0" font-family="'Calibri'" font-size="18">E</tspan><tspan x="68.174" y="0" font-family="'Calibri'" font-size="18">S</tspan><tspan x="76.338" y="0" font-family="'Calibri'" font-size="18"> </tspan></text>
		</g>
	</g>
	<g>
		<defs>
			<rect id="SVGID_49_" x="-30.335" y="0.12" width="719.999" height="540"/>
		</defs>
		<clipPath id="SVGID_50_">
			<use xlink:href="#SVGID_49_"  overflow="visible"/>
		</clipPath>
		<g clip-path="url(#SVGID_50_)">
			<text transform="matrix(1 0 0 1 268.8315 498.145)"><tspan x="0" y="0" font-family="'Calibri'" font-size="18">s</tspan><tspan x="6.968" y="0" font-family="'Calibri'" font-size="18">p</tspan><tspan x="16.334" y="0" font-family="'Calibri'" font-size="18">e</tspan><tspan x="25.219" y="0" font-family="'Calibri'" font-size="18">c</tspan><tspan x="32.884" y="0" font-family="'Calibri'" font-size="18">i</tspan><tspan x="36.979" y="0" font-family="'Calibri'" font-size="18">es</tspan><tspan x="52.832" y="0" font-family="'Calibri'" font-size="18"> </tspan><tspan x="57.135" y="0" font-family="'Calibri'" font-size="18">fl</tspan><tspan x="66.68" y="0" font-family="'Calibri'" font-size="18">a</tspan><tspan x="75.301" y="0" font-family="'Calibri'" font-size="18">g</tspan><tspan x="83.936" y="0" font-family="'Calibri'" font-size="18">g</tspan><tspan x="92.104" y="0" font-family="'Calibri'" font-size="18">e</tspan><tspan x="100.987" y="0" font-family="'Calibri'" font-size="18">d</tspan></text>
		</g>
	</g>
	<path fill="#4A7EBB" stroke="#4A7EBB" stroke-width="0.015" stroke-linejoin="round" stroke-miterlimit="10" d="M330.055,332.235
		v27.494h-1.005v-27.494H330.055z M333.49,353.985l-3.945,6.75l-3.93-6.75c-0.135-0.24-0.061-0.541,0.18-0.676
		c0.24-0.15,0.555-0.061,0.689,0.18l3.496,6h-0.855l3.494-6c0.137-0.24,0.451-0.33,0.691-0.18
		C333.535,353.444,333.625,353.745,333.49,353.985L333.49,353.985z"/>
	<path fill="#4A7EBB" stroke="#4A7EBB" stroke-width="0.015" stroke-linejoin="round" stroke-miterlimit="10" d="M330.055,411.614
		v21.826h-1.005v-21.826H330.055z M333.49,427.694l-3.945,6.736l-3.93-6.736c-0.135-0.24-0.061-0.539,0.18-0.674
		c0.24-0.15,0.555-0.061,0.689,0.18l3.496,6h-0.855l3.494-6c0.137-0.24,0.451-0.33,0.691-0.18
		C333.535,427.155,333.625,427.454,333.49,427.694L333.49,427.694z"/>
</g>
</svg>
